<?xml version="1.0" encoding="utf-8"?>
<!-- Generator: Adobe Illustrator 24.1.3, SVG Export Plug-In . SVG Version: 6.00 Build 0)  -->
<svg version="1.1" id="Laag_1" xmlns="http://www.w3.org/2000/svg" xmlns:xlink="http://www.w3.org/1999/xlink" x="0px" y="0px"
	 viewBox="0 0 612 792" style="enable-background:new 0 0 612 792;" xml:space="preserve">
<path d="M324.23,422.15c-52.42,36.42-104.81,72.87-157.27,109.22c-11.16,7.73-23.09,8.45-34.84,1.62
	c-11.59-6.73-16.75-17.34-15.67-30.65c0.8-9.85,5.63-17.65,13.73-23.32c13.11-9.17,26.27-18.27,39.4-27.4
	c91.56-63.61,183.11-127.23,274.67-190.82c15.25-10.59,34.54-7.85,44.98,6.29c10.84,14.68,7.68,34.94-7.37,45.49
	c-26.48,18.55-53.08,36.92-79.63,55.37C376.24,386.02,350.23,404.08,324.23,422.15z"/>
<path d="M283.34,422.13C335.75,458.54,388.14,495,440.6,531.34c11.16,7.73,23.09,8.45,34.84,1.62
	c11.59-6.73,16.75-17.34,15.67-30.65c-0.8-9.85-5.63-17.65-13.73-23.32c-13.11-9.17-26.27-18.27-39.4-27.4
	C346.43,388,254.88,324.38,163.31,260.79c-15.25-10.59-34.54-7.85-44.98,6.29c-10.84,14.68-7.68,34.94,7.37,45.49
	c26.48,18.55,53.08,36.92,79.63,55.37C231.33,386,257.34,404.06,283.34,422.13z"/>
</svg>
